<svg xmlns="http://www.w3.org/2000/svg" width="806.511" height="366" viewBox="0 0 806.511 366">
  <g id="bg-center" transform="translate(227 0)">
    <path id="Path_1" data-name="Path 1" d="M701.028,366.869a107.979,107.979,0,0,0-8.936-34.078q-2.017-4.506-4.44-8.813a.658.658,0,0,1,1.136-.664,109.467,109.467,0,0,1,12.181,33.6q.915,4.94,1.375,9.95C702.421,367.712,701.106,367.706,701.028,366.869Z" transform="translate(-717.071 -252.363)" fill="#e6e6e6"/>
    <circle id="Ellipse_5" data-name="Ellipse 5" cx="8.329" cy="8.329" r="8.329" transform="translate(-40.934 57.066)" fill="#e6e6e6"/>
    <path id="Path_2" data-name="Path 2" d="M697.789,369.126a70.05,70.05,0,0,0-5.8-22.108q-1.308-2.923-2.88-5.717a.427.427,0,0,1,.737-.431,71.018,71.018,0,0,1,7.9,21.8q.593,3.2.892,6.455C698.692,369.673,697.839,369.669,697.789,369.126Z" transform="translate(-714.684 -254.398)" fill="#e6e6e6"/>
    <circle id="Ellipse_6" data-name="Ellipse 6" cx="5.404" cy="5.404" r="5.404" transform="translate(-33.043 77.464)" fill="#e6e6e6"/>
    <path id="Path_3" data-name="Path 3" d="M676.314,368.657a70.049,70.049,0,0,0,9.027-21q.766-3.109,1.245-6.28a.427.427,0,0,1,.846.114,71.016,71.016,0,0,1-7.178,22.05q-1.5,2.892-3.267,5.638c-.3.462-.967-.066-.673-.525Z" transform="translate(-692.132 -254.439)" fill="#e6e6e6"/>
    <circle id="Ellipse_7" data-name="Ellipse 7" cx="5.404" cy="5.404" r="5.404" transform="translate(-10.097 77.084)" fill="#e6e6e6"/>
    <path id="Path_4" data-name="Path 4" d="M702.795,375.758V365.141a3.986,3.986,0,0,0-3.981-3.981H674.041a3.986,3.986,0,0,0-3.981,3.981v10.617a3.986,3.986,0,0,0,3.981,3.981h24.773A3.986,3.986,0,0,0,702.795,375.758Z" transform="translate(-702.024 -256.76)" fill="#f2f2f2"/>
    <path id="Path_5" data-name="Path 5" d="M689.041,294.475h10.617a3.986,3.986,0,0,0,3.981-3.981V247.141a3.986,3.986,0,0,0-3.981-3.981H689.041a3.986,3.986,0,0,0-3.981,3.981v43.353a3.986,3.986,0,0,0,3.981,3.981Z" transform="translate(-716.139 -243.16)" fill="#f2f2f2"/>
    <rect id="Rectangle_8" data-name="Rectangle 8" width="17.695" height="3.539" transform="translate(-30.638 8.405)" fill="#ccc"/>
    <rect id="Rectangle_9" data-name="Rectangle 9" width="17.695" height="3.539" transform="translate(-30.638 35.832)" fill="#ccc"/>
    <path id="Path_6" data-name="Path 6" d="M719.04,294.475h10.617a3.986,3.986,0,0,0,3.981-3.981V247.141a3.986,3.986,0,0,0-3.981-3.981H719.04a3.986,3.986,0,0,0-3.981,3.981v43.353a3.986,3.986,0,0,0,3.981,3.981Z" transform="translate(-772.682 -243.16)" fill="#f2f2f2"/>
    <rect id="Rectangle_10" data-name="Rectangle 10" width="17.695" height="3.539" transform="translate(-57.18 8.405)" fill="#ccc"/>
    <rect id="Rectangle_11" data-name="Rectangle 11" width="17.695" height="3.539" transform="translate(-57.18 35.832)" fill="#ccc"/>
    <path id="Path_7" data-name="Path 7" d="M749.04,294.475h10.617a3.986,3.986,0,0,0,3.981-3.981V247.141a3.986,3.986,0,0,0-3.981-3.981H749.04a3.986,3.986,0,0,0-3.981,3.981v43.353a3.986,3.986,0,0,0,3.981,3.981Z" transform="translate(-829.224 -243.16)" fill="#f2f2f2"/>
    <rect id="Rectangle_12" data-name="Rectangle 12" width="17.695" height="3.539" transform="translate(-83.723 8.405)" fill="#ccc"/>
    <rect id="Rectangle_13" data-name="Rectangle 13" width="17.695" height="3.539" transform="translate(-83.723 35.832)" fill="#ccc"/>
    <path id="Path_8" data-name="Path 8" d="M765.04,375.475h10.617a3.986,3.986,0,0,0,3.981-3.981V328.141a3.986,3.986,0,0,0-3.981-3.981H765.04a3.986,3.986,0,0,0-3.981,3.981v43.353a3.986,3.986,0,0,0,3.981,3.981Z" transform="translate(-859.38 -252.496)" fill="#f2f2f2"/>
    <rect id="Rectangle_14" data-name="Rectangle 14" width="17.695" height="3.539" transform="translate(-97.879 80.07)" fill="#ccc"/>
    <rect id="Rectangle_15" data-name="Rectangle 15" width="17.695" height="3.539" transform="translate(-97.879 107.497)" fill="#ccc"/>
    <path id="Path_9" data-name="Path 9" d="M795.04,375.475h10.617a3.986,3.986,0,0,0,3.981-3.981V328.141a3.986,3.986,0,0,0-3.981-3.981H795.04a3.986,3.986,0,0,0-3.981,3.981v43.353a3.986,3.986,0,0,0,3.981,3.981Z" transform="translate(-915.923 -252.496)" fill="#f2f2f2"/>
    <rect id="Rectangle_16" data-name="Rectangle 16" width="17.695" height="3.539" transform="translate(-124.421 80.07)" fill="#ccc"/>
    <rect id="Rectangle_17" data-name="Rectangle 17" width="17.695" height="3.539" transform="translate(-124.421 107.497)" fill="#ccc"/>
    <path id="Path_10" data-name="Path 10" d="M825.04,375.475h10.617a3.986,3.986,0,0,0,3.981-3.981V328.141a3.986,3.986,0,0,0-3.981-3.981H825.04a3.986,3.986,0,0,0-3.981,3.981v43.353a3.986,3.986,0,0,0,3.981,3.981Z" transform="translate(-972.465 -252.496)" fill="#f2f2f2"/>
    <rect id="Rectangle_18" data-name="Rectangle 18" width="17.695" height="3.539" transform="translate(-150.964 80.07)" fill="#ccc"/>
    <rect id="Rectangle_19" data-name="Rectangle 19" width="17.695" height="3.539" transform="translate(-150.964 107.497)" fill="#ccc"/>
    <path id="Path_11" data-name="Path 11" d="M686.04,456.475h10.617a3.986,3.986,0,0,0,3.981-3.981V409.141a3.986,3.986,0,0,0-3.981-3.981H686.04a3.986,3.986,0,0,0-3.981,3.981v43.353a3.986,3.986,0,0,0,3.981,3.981Z" transform="translate(-710.485 -261.831)" fill="#f2f2f2"/>
    <rect id="Rectangle_20" data-name="Rectangle 20" width="17.695" height="3.539" transform="translate(-27.983 151.734)" fill="#ccc"/>
    <rect id="Rectangle_21" data-name="Rectangle 21" width="17.695" height="3.539" transform="translate(-27.983 179.162)" fill="#ccc"/>
    <path id="Path_12" data-name="Path 12" d="M716.04,456.475h10.617a3.986,3.986,0,0,0,3.981-3.981V409.141a3.986,3.986,0,0,0-3.981-3.981H716.04a3.986,3.986,0,0,0-3.981,3.981v43.353a3.986,3.986,0,0,0,3.981,3.981Z" transform="translate(-767.027 -261.831)" fill="#f2f2f2"/>
    <rect id="Rectangle_22" data-name="Rectangle 22" width="17.695" height="3.539" transform="translate(-54.526 151.734)" fill="#ccc"/>
    <rect id="Rectangle_23" data-name="Rectangle 23" width="17.695" height="3.539" transform="translate(-54.526 179.162)" fill="#ccc"/>
    <path id="Path_13" data-name="Path 13" d="M746.04,456.475h10.617a3.986,3.986,0,0,0,3.981-3.981V409.141a3.986,3.986,0,0,0-3.981-3.981H746.04a3.986,3.986,0,0,0-3.981,3.981v43.353a3.986,3.986,0,0,0,3.981,3.981Z" transform="translate(-823.57 -261.831)" fill="#f2f2f2"/>
    <rect id="Rectangle_24" data-name="Rectangle 24" width="17.695" height="3.539" transform="translate(-81.068 151.734)" fill="#ccc"/>
    <rect id="Rectangle_25" data-name="Rectangle 25" width="17.695" height="3.539" transform="translate(-81.068 179.162)" fill="#ccc"/>
    <path id="Path_14" data-name="Path 14" d="M779.04,294.475h10.617a3.986,3.986,0,0,0,3.981-3.981V247.141a3.986,3.986,0,0,0-3.981-3.981H779.04a3.986,3.986,0,0,0-3.981,3.981v43.353a3.986,3.986,0,0,0,3.981,3.981Z" transform="translate(-885.767 -243.16)" fill="#f2f2f2"/>
    <rect id="Rectangle_26" data-name="Rectangle 26" width="17.695" height="3.539" transform="translate(-110.265 8.405)" fill="#ccc"/>
    <rect id="Rectangle_27" data-name="Rectangle 27" width="17.695" height="3.539" transform="translate(-110.265 35.832)" fill="#ccc"/>
    <path id="Path_15" data-name="Path 15" d="M809.04,294.475h10.617a3.986,3.986,0,0,0,3.981-3.981V247.141a3.986,3.986,0,0,0-3.981-3.981H809.04a3.986,3.986,0,0,0-3.981,3.981v43.353a3.986,3.986,0,0,0,3.981,3.981Z" transform="translate(-942.309 -243.16)" fill="#f2f2f2"/>
    <rect id="Rectangle_28" data-name="Rectangle 28" width="17.695" height="3.539" transform="translate(-136.808 8.405)" fill="#ccc"/>
    <rect id="Rectangle_29" data-name="Rectangle 29" width="17.695" height="3.539" transform="translate(-136.808 35.832)" fill="#ccc"/>
    <path id="Path_16" data-name="Path 16" d="M839.04,294.475h10.617a3.986,3.986,0,0,0,3.981-3.981V247.141a3.986,3.986,0,0,0-3.981-3.981H839.04a3.986,3.986,0,0,0-3.981,3.981v43.353a3.986,3.986,0,0,0,3.981,3.981Z" transform="translate(-998.852 -243.16)" fill="#f2f2f2"/>
    <rect id="Rectangle_30" data-name="Rectangle 30" width="17.695" height="3.539" transform="translate(-163.35 8.405)" fill="#ccc"/>
    <rect id="Rectangle_31" data-name="Rectangle 31" width="17.695" height="3.539" transform="translate(-163.35 35.832)" fill="#ccc"/>
    <path id="Path_17" data-name="Path 17" d="M869.04,294.475h10.617a3.986,3.986,0,0,0,3.981-3.981V247.141a3.986,3.986,0,0,0-3.981-3.981H869.04a3.986,3.986,0,0,0-3.981,3.981v43.353a3.986,3.986,0,0,0,3.981,3.981Z" transform="translate(-1055.394 -243.16)" fill="#f2f2f2"/>
    <rect id="Rectangle_32" data-name="Rectangle 32" width="17.695" height="3.539" transform="translate(-189.893 8.405)" fill="#ccc"/>
    <rect id="Rectangle_33" data-name="Rectangle 33" width="17.695" height="3.539" transform="translate(-189.893 35.832)" fill="#ccc"/>
    <path id="Path_18" data-name="Path 18" d="M641.385,302.43H893.538a.885.885,0,1,0,0-1.77H641.385a.885.885,0,1,0,0,1.77Z" transform="translate(-867.5 -249.787)" fill="#ccc"/>
    <path id="Path_19" data-name="Path 19" d="M641.385,383.43H893.538a.885.885,0,1,0,0-1.77H641.385a.885.885,0,1,0,0,1.77Z" transform="translate(-867.5 -259.122)" fill="#ccc"/>
    <path id="Path_20" data-name="Path 20" d="M641.385,464.43H893.538a.885.885,0,1,0,0-1.77H641.385a.885.885,0,1,0,0,1.77Z" transform="translate(-867.5 -268.458)" fill="#ccc"/>
    <path id="Path_21" data-name="Path 21" d="M866.028,447.869a107.976,107.976,0,0,0-8.936-34.078q-2.017-4.506-4.44-8.813a.658.658,0,0,1,1.136-.664,109.471,109.471,0,0,1,12.181,33.6q.915,4.94,1.375,9.95c.078.842-1.238.837-1.315,0Z" transform="translate(-1028.055 -261.698)" fill="#e6e6e6"/>
    <circle id="Ellipse_8" data-name="Ellipse 8" cx="8.329" cy="8.329" r="8.329" transform="translate(-186.917 128.731)" fill="#e6e6e6"/>
    <path id="Path_22" data-name="Path 22" d="M862.788,450.126a70.053,70.053,0,0,0-5.8-22.108q-1.308-2.923-2.88-5.717a.427.427,0,0,1,.737-.431,71.017,71.017,0,0,1,7.9,21.8q.593,3.2.892,6.455C863.692,450.673,862.839,450.669,862.788,450.126Z" transform="translate(-1025.667 -263.734)" fill="#e6e6e6"/>
    <circle id="Ellipse_9" data-name="Ellipse 9" cx="5.404" cy="5.404" r="5.404" transform="translate(-179.027 149.128)" fill="#e6e6e6"/>
    <path id="Path_23" data-name="Path 23" d="M841.314,449.657a70.05,70.05,0,0,0,9.026-21q.766-3.109,1.245-6.28a.427.427,0,0,1,.846.114,71.019,71.019,0,0,1-7.178,22.05q-1.5,2.892-3.267,5.638C841.69,450.644,841.019,450.117,841.314,449.657Z" transform="translate(-1003.116 -263.775)" fill="#e6e6e6"/>
    <circle id="Ellipse_10" data-name="Ellipse 10" cx="5.404" cy="5.404" r="5.404" transform="translate(-156.081 148.749)" fill="#e6e6e6"/>
    <path id="Path_24" data-name="Path 24" d="M867.795,456.758V446.141a3.986,3.986,0,0,0-3.981-3.981H839.04a3.986,3.986,0,0,0-3.981,3.981v10.617a3.986,3.986,0,0,0,3.981,3.981h24.773A3.986,3.986,0,0,0,867.795,456.758Z" transform="translate(-1013.008 -266.095)" fill="#f2f2f2"/>
    <path id="Path_25" data-name="Path 25" d="M273.385,606.429H610.474a.885.885,0,1,0,0-1.769H273.385a.885.885,0,1,0,0,1.769Z" transform="translate(-258.848 -284.823)" fill="#3f3d56"/>
    <circle id="Ellipse_11" data-name="Ellipse 11" cx="23.888" cy="23.888" r="23.888" transform="translate(152.505 157.928)" fill="#2f2e41"/>
    <path id="Path_26" data-name="Path 26" d="M214.456,376.426l.633-10.828L173.624,358l-.934,15.982Z" transform="translate(-15.366 -41.26)" fill="#ffb8b8"/>
    <path id="Path_28" data-name="Path 28" d="M145.768,375.253l6.888,8.379,35.6-22.578L178.09,348.688Z" transform="translate(35.288 -40.187)" fill="#ffb8b8"/>
    <path id="Path_29" data-name="Path 29" d="M13.171,13.171H34.09V0H0A13.171,13.171,0,0,0,13.171,13.171Z" transform="matrix(-0.635, -0.773, 0.773, -0.635, 193.443, 366)" fill="#2f2e41"/>
    <path id="Path_30" data-name="Path 30" d="M487.045,577.465l4.707,22.188a3.539,3.539,0,0,1-3.4,4.273l-46.271.746a3.539,3.539,0,0,1-3.542-4.154l4.047-22.935a3.539,3.539,0,0,1,3.485-2.924h37.516A3.539,3.539,0,0,1,487.045,577.465Z" transform="translate(-286.169 -281.366)" fill="#2f2e41"/>
    <path id="Path_31" data-name="Path 31" d="M398.491,584.358s45.122-28.312,53.97-13.271c4.424,7.52,2.212,14.82-1.106,20.239a30.639,30.639,0,0,1-12.743,11.405l-36.582,17.9-13.271-14.156,8.847-7.963Z" transform="translate(-205.288 -280.446)" fill="#2f2e41"/>
    <path id="Path_32" data-name="Path 32" d="M512.951,581.083s-58.393-16.81-46.892,15.041,54.854,19.464,54.854,19.464l4.424-13.271L510.3,591.7Z" transform="translate(-342.751 -281.595)" fill="#2f2e41"/>
    <circle id="Ellipse_12" data-name="Ellipse 12" cx="21.73" cy="21.73" r="21.73" transform="translate(154.363 165.54)" fill="#ffb8b8"/>
    <path id="Path_33" data-name="Path 33" d="M462.216,574.244a116.778,116.778,0,0,0,26.77-3.527l.259-.071,12.126-55.779a20.548,20.548,0,0,0-13.212-23.838,71.186,71.186,0,0,0-45.387-.906h0a20.765,20.765,0,0,0-13.833,24.565L442.482,570.6l.191.091C448.3,573.357,455.34,574.244,462.216,574.244Z" transform="translate(-287.261 -271.245)" fill="#ccc"/>
    <path id="Path_34" data-name="Path 34" d="M493,587.214a8.9,8.9,0,0,0-12.807-4.7l-23.876-20.725-2.16,16.287,23,17.184A8.945,8.945,0,0,0,493,587.214Z" transform="translate(-301.752 -279.883)" fill="#ffb8b8"/>
    <path id="Path_35" data-name="Path 35" d="M522.714,583.618a4.009,4.009,0,0,0,1.147-.168,3.94,3.94,0,0,0,2.621-2.492l2.882-8.165a3.956,3.956,0,0,0-1.152-4.337l-32.531-19.53L508.5,491.716l-.326-.079c-.133-.033-13.271-3.023-18.656,11.334-3.77,10.055-17.723,31.919-16.738,46.694a13.169,13.169,0,0,0,10.9,12.145l36.618,20.98a3.942,3.942,0,0,0,2.41.827Z" transform="translate(-354.242 -271.765)" fill="#ccc"/>
    <path id="Path_36" data-name="Path 36" d="M441.282,585.021a8.9,8.9,0,0,1,12.807-4.7L477.965,559.6l2.16,16.287-23,17.184a8.945,8.945,0,0,1-15.839-8.046Z" transform="translate(-276.458 -279.63)" fill="#ffb8b8"/>
    <path id="Path_37" data-name="Path 37" d="M409.005,583.618a3.942,3.942,0,0,0,2.41-.827l39.272-19.211a13.169,13.169,0,0,0,10.9-12.145c.984-14.775-15.622-38.408-19.393-48.463-5.384-14.357-18.523-11.368-18.656-11.334l-.326.079,15.478,58.978-35.185,17.761a3.957,3.957,0,0,0-1.152,4.337l2.882,8.165a3.94,3.94,0,0,0,2.621,2.492A4.011,4.011,0,0,0,409.005,583.618Z" transform="translate(-223.806 -271.765)" fill="#ccc"/>
    <circle id="Ellipse_13" data-name="Ellipse 13" cx="5.308" cy="5.308" r="5.308" transform="translate(172.412 287.543)" fill="#fff"/>
    <path id="Path_39" data-name="Path 39" d="M485.36,450.71c1.288-3.267-.825-7.16-3.96-8.742s-6.917-1.281-10.27-.239c-2.818.876-5.459,2.235-8.208,3.308a18.369,18.369,0,0,1-8.629,1.537,8.691,8.691,0,0,1-7.051-4.671c-1.244-2.795-.4-6.2,1.517-8.59a16.633,16.633,0,0,1,7.619-4.9c6.465-2.278,13.933-2.344,19.935.967s10.081,10.361,8.841,17.1" transform="translate(-287.319 -264.324)" fill="#2f2e41"/>
    <path id="Path_40" data-name="Path 40" d="M317.128,589.265a107.978,107.978,0,0,0-8.937-34.079q-2.017-4.505-4.44-8.813a.658.658,0,0,1,1.136-.664,109.469,109.469,0,0,1,12.181,33.6q.915,4.94,1.375,9.95c.078.842-1.238.837-1.315,0Z" transform="translate(6.485 -277.994)" fill="#e6e6e6"/>
    <circle id="Ellipse_14" data-name="Ellipse 14" cx="8.329" cy="8.329" r="8.329" transform="translate(298.722 253.831)" fill="#6c63ff"/>
    <path id="Path_41" data-name="Path 41" d="M313.887,591.522a70.051,70.051,0,0,0-5.8-22.108q-1.308-2.923-2.88-5.717a.427.427,0,0,1,.737-.431,71.016,71.016,0,0,1,7.9,21.8q.593,3.2.892,6.455C314.791,592.069,313.937,592.065,313.887,591.522Z" transform="translate(8.874 -280.03)" fill="#e6e6e6"/>
    <circle id="Ellipse_15" data-name="Ellipse 15" cx="5.404" cy="5.404" r="5.404" transform="translate(306.613 274.228)" fill="#6c63ff"/>
    <path id="Path_42" data-name="Path 42" d="M292.413,591.052a70.05,70.05,0,0,0,9.027-21q.766-3.109,1.245-6.279a.427.427,0,0,1,.846.114,71.017,71.017,0,0,1-7.178,22.05q-1.5,2.892-3.267,5.638C292.789,592.039,292.118,591.512,292.413,591.052Z" transform="translate(31.425 -280.07)" fill="#e6e6e6"/>
    <circle id="Ellipse_16" data-name="Ellipse 16" cx="5.404" cy="5.404" r="5.404" transform="translate(329.559 273.849)" fill="#6c63ff"/>
    <path id="Path_43" data-name="Path 43" d="M318.895,598.154V587.537a3.986,3.986,0,0,0-3.981-3.981H290.14a3.986,3.986,0,0,0-3.981,3.981v10.617a3.986,3.986,0,0,0,3.981,3.981h24.773a3.986,3.986,0,0,0,3.981-3.981Z" transform="translate(21.531 -282.391)" fill="#f2f2f2"/>
    <path id="Path_44" data-name="Path 44" d="M563.091,612.611c0,5.819,4.717,8.464,10.536,8.464s10.536-2.645,10.536-8.464S581.822,600,573.628,602.344C565.433,598.832,563.091,606.792,563.091,612.611Z" transform="translate(-488.754 -284.457)" fill="#ff6584"/>
    <path id="Path_45" data-name="Path 45" d="M570.64,603.665a1.684,1.684,0,0,0,1.673-1.468c.349-2.9,2.272-8.589,3.082-10.9h0a1.506,1.506,0,0,0-.195-1.386,1.581,1.581,0,0,0-2.356-.17,1.508,1.508,0,0,0-.414,1.129c.159,2.964-2,7.755-3.3,10.346a1.688,1.688,0,0,0,1.336,2.438,1.559,1.559,0,0,0,.179.01Z" transform="translate(-485.253 -283.052)" fill="#3f3d56"/>
    <path id="Path_46" data-name="Path 46" d="M575.083,597.092c-3.657-2.993-.788-9.12,3.79-7.944a3.7,3.7,0,0,1,1.649.88c2.808,2.653,3.243,9.44,3.243,9.44A12.428,12.428,0,0,1,575.083,597.092Z" transform="translate(-497.492 -283.019)" fill="#3f3d56"/>
    <path id="Path_1-2" data-name="Path 1" d="M688.891,366.869a107.979,107.979,0,0,1,8.936-34.078q2.017-4.506,4.44-8.813a.658.658,0,0,0-1.136-.664,109.467,109.467,0,0,0-12.181,33.6q-.915,4.94-1.375,9.95C687.5,367.712,688.814,367.706,688.891,366.869Z" transform="translate(-320.337 -252.363)" fill="#e6e6e6"/>
    <circle id="Ellipse_5-2" data-name="Ellipse 5" cx="8.329" cy="8.329" r="8.329" transform="translate(376.786 57.066)" fill="#e6e6e6"/>
    <path id="Path_2-2" data-name="Path 2" d="M689.915,369.126a70.05,70.05,0,0,1,5.8-22.108q1.308-2.923,2.88-5.717a.427.427,0,0,0-.737-.431,71.018,71.018,0,0,0-7.9,21.8q-.593,3.2-.892,6.455C689.011,369.673,689.864,369.669,689.915,369.126Z" transform="translate(-320.509 -254.398)" fill="#e6e6e6"/>
    <circle id="Ellipse_6-2" data-name="Ellipse 6" cx="5.404" cy="5.404" r="5.404" transform="translate(374.747 77.464)" fill="#e6e6e6"/>
    <path id="Path_3-2" data-name="Path 3" d="M687.361,368.657a70.049,70.049,0,0,1-9.027-21q-.766-3.109-1.245-6.28a.427.427,0,0,0-.846.114,71.016,71.016,0,0,0,7.178,22.05q1.5,2.892,3.267,5.638c.3.462.967-.066.673-.525Z" transform="translate(-319.031 -254.439)" fill="#e6e6e6"/>
    <circle id="Ellipse_7-2" data-name="Ellipse 7" cx="5.404" cy="5.404" r="5.404" transform="translate(351.801 77.084)" fill="#e6e6e6"/>
    <path id="Path_4-2" data-name="Path 4" d="M670.059,375.758V365.141a3.986,3.986,0,0,1,3.981-3.981h24.773a3.986,3.986,0,0,1,3.981,3.981v10.617a3.986,3.986,0,0,1-3.981,3.981H674.04A3.986,3.986,0,0,1,670.059,375.758Z" transform="translate(-318.319 -256.76)" fill="#f2f2f2"/>
    <path id="Path_5-2" data-name="Path 5" d="M699.657,294.475H689.04a3.986,3.986,0,0,1-3.981-3.981V247.141a3.986,3.986,0,0,1,3.981-3.981h10.617a3.986,3.986,0,0,1,3.981,3.981v43.353a3.986,3.986,0,0,1-3.981,3.981Z" transform="translate(-320.048 -243.16)" fill="#f2f2f2"/>
    <rect id="Rectangle_8-2" data-name="Rectangle 8" width="17.695" height="3.539" transform="translate(365.454 8.405)" fill="#ccc"/>
    <rect id="Rectangle_9-2" data-name="Rectangle 9" width="17.695" height="3.539" transform="translate(365.454 35.832)" fill="#ccc"/>
    <path id="Path_6-2" data-name="Path 6" d="M729.657,294.475H719.04a3.986,3.986,0,0,1-3.981-3.981V247.141a3.986,3.986,0,0,1,3.981-3.981h10.617a3.986,3.986,0,0,1,3.981,3.981v43.353a3.986,3.986,0,0,1-3.981,3.981Z" transform="translate(-323.505 -243.16)" fill="#f2f2f2"/>
    <rect id="Rectangle_10-2" data-name="Rectangle 10" width="17.695" height="3.539" transform="translate(391.996 8.405)" fill="#ccc"/>
    <rect id="Rectangle_11-2" data-name="Rectangle 11" width="17.695" height="3.539" transform="translate(391.996 35.832)" fill="#ccc"/>
    <path id="Path_7-2" data-name="Path 7" d="M759.657,294.475H749.04a3.986,3.986,0,0,1-3.981-3.981V247.141a3.986,3.986,0,0,1,3.981-3.981h10.617a3.986,3.986,0,0,1,3.981,3.981v43.353a3.986,3.986,0,0,1-3.981,3.981Z" transform="translate(-326.963 -243.16)" fill="#f2f2f2"/>
    <rect id="Rectangle_12-2" data-name="Rectangle 12" width="17.695" height="3.539" transform="translate(418.539 8.405)" fill="#ccc"/>
    <rect id="Rectangle_13-2" data-name="Rectangle 13" width="17.695" height="3.539" transform="translate(418.539 35.832)" fill="#ccc"/>
    <path id="Path_8-2" data-name="Path 8" d="M775.657,375.475H765.04a3.986,3.986,0,0,1-3.981-3.981V328.141a3.986,3.986,0,0,1,3.981-3.981h10.617a3.986,3.986,0,0,1,3.981,3.981v43.353a3.986,3.986,0,0,1-3.981,3.981Z" transform="translate(-328.807 -252.496)" fill="#f2f2f2"/>
    <rect id="Rectangle_14-2" data-name="Rectangle 14" width="17.695" height="3.539" transform="translate(432.695 80.07)" fill="#ccc"/>
    <rect id="Rectangle_15-2" data-name="Rectangle 15" width="17.695" height="3.539" transform="translate(432.695 107.497)" fill="#ccc"/>
    <path id="Path_9-2" data-name="Path 9" d="M805.657,375.475H795.04a3.986,3.986,0,0,1-3.981-3.981V328.141a3.986,3.986,0,0,1,3.981-3.981h10.617a3.986,3.986,0,0,1,3.981,3.981v43.353a3.986,3.986,0,0,1-3.981,3.981Z" transform="translate(-332.264 -252.496)" fill="#f2f2f2"/>
    <rect id="Rectangle_16-2" data-name="Rectangle 16" width="17.695" height="3.539" transform="translate(459.237 80.07)" fill="#ccc"/>
    <rect id="Rectangle_17-2" data-name="Rectangle 17" width="17.695" height="3.539" transform="translate(459.237 107.497)" fill="#ccc"/>
    <path id="Path_10-2" data-name="Path 10" d="M835.657,375.475H825.04a3.986,3.986,0,0,1-3.981-3.981V328.141a3.986,3.986,0,0,1,3.981-3.981h10.617a3.986,3.986,0,0,1,3.981,3.981v43.353a3.986,3.986,0,0,1-3.981,3.981Z" transform="translate(-335.722 -252.496)" fill="#f2f2f2"/>
    <rect id="Rectangle_18-2" data-name="Rectangle 18" width="17.695" height="3.539" transform="translate(485.78 80.07)" fill="#ccc"/>
    <rect id="Rectangle_19-2" data-name="Rectangle 19" width="17.695" height="3.539" transform="translate(485.78 107.497)" fill="#ccc"/>
    <path id="Path_11-2" data-name="Path 11" d="M696.657,456.475H686.04a3.986,3.986,0,0,1-3.981-3.981V409.141a3.986,3.986,0,0,1,3.981-3.981h10.617a3.986,3.986,0,0,1,3.981,3.981v43.353a3.986,3.986,0,0,1-3.981,3.981Z" transform="translate(-319.702 -261.831)" fill="#f2f2f2"/>
    <rect id="Rectangle_20-2" data-name="Rectangle 20" width="17.695" height="3.539" transform="translate(362.799 151.734)" fill="#ccc"/>
    <rect id="Rectangle_21-2" data-name="Rectangle 21" width="17.695" height="3.539" transform="translate(362.799 179.162)" fill="#ccc"/>
    <path id="Path_12-2" data-name="Path 12" d="M726.657,456.475H716.04a3.986,3.986,0,0,1-3.981-3.981V409.141a3.986,3.986,0,0,1,3.981-3.981h10.617a3.986,3.986,0,0,1,3.981,3.981v43.353a3.986,3.986,0,0,1-3.981,3.981Z" transform="translate(-323.16 -261.831)" fill="#f2f2f2"/>
    <rect id="Rectangle_22-2" data-name="Rectangle 22" width="17.695" height="3.539" transform="translate(389.342 151.734)" fill="#ccc"/>
    <rect id="Rectangle_23-2" data-name="Rectangle 23" width="17.695" height="3.539" transform="translate(389.342 179.162)" fill="#ccc"/>
    <path id="Path_13-2" data-name="Path 13" d="M756.657,456.475H746.04a3.986,3.986,0,0,1-3.981-3.981V409.141a3.986,3.986,0,0,1,3.981-3.981h10.617a3.986,3.986,0,0,1,3.981,3.981v43.353a3.986,3.986,0,0,1-3.981,3.981Z" transform="translate(-326.617 -261.831)" fill="#f2f2f2"/>
    <rect id="Rectangle_24-2" data-name="Rectangle 24" width="17.695" height="3.539" transform="translate(415.884 151.734)" fill="#ccc"/>
    <rect id="Rectangle_25-2" data-name="Rectangle 25" width="17.695" height="3.539" transform="translate(415.884 179.162)" fill="#ccc"/>
    <path id="Path_14-2" data-name="Path 14" d="M789.657,294.475H779.04a3.986,3.986,0,0,1-3.981-3.981V247.141a3.986,3.986,0,0,1,3.981-3.981h10.617a3.986,3.986,0,0,1,3.981,3.981v43.353a3.986,3.986,0,0,1-3.981,3.981Z" transform="translate(-330.42 -243.16)" fill="#f2f2f2"/>
    <rect id="Rectangle_26-2" data-name="Rectangle 26" width="17.695" height="3.539" transform="translate(445.081 8.405)" fill="#ccc"/>
    <rect id="Rectangle_27-2" data-name="Rectangle 27" width="17.695" height="3.539" transform="translate(445.081 35.832)" fill="#ccc"/>
    <path id="Path_15-2" data-name="Path 15" d="M819.657,294.475H809.04a3.986,3.986,0,0,1-3.981-3.981V247.141a3.986,3.986,0,0,1,3.981-3.981h10.617a3.986,3.986,0,0,1,3.981,3.981v43.353a3.986,3.986,0,0,1-3.981,3.981Z" transform="translate(-333.878 -243.16)" fill="#f2f2f2"/>
    <rect id="Rectangle_28-2" data-name="Rectangle 28" width="17.695" height="3.539" transform="translate(471.624 8.405)" fill="#ccc"/>
    <rect id="Rectangle_29-2" data-name="Rectangle 29" width="17.695" height="3.539" transform="translate(471.624 35.832)" fill="#ccc"/>
    <path id="Path_16-2" data-name="Path 16" d="M849.657,294.475H839.04a3.986,3.986,0,0,1-3.981-3.981V247.141a3.986,3.986,0,0,1,3.981-3.981h10.617a3.986,3.986,0,0,1,3.981,3.981v43.353a3.986,3.986,0,0,1-3.981,3.981Z" transform="translate(-337.335 -243.16)" fill="#f2f2f2"/>
    <rect id="Rectangle_30-2" data-name="Rectangle 30" width="17.695" height="3.539" transform="translate(498.166 8.405)" fill="#ccc"/>
    <rect id="Rectangle_31-2" data-name="Rectangle 31" width="17.695" height="3.539" transform="translate(498.166 35.832)" fill="#ccc"/>
    <path id="Path_17-2" data-name="Path 17" d="M879.657,294.475H869.04a3.986,3.986,0,0,1-3.981-3.981V247.141a3.986,3.986,0,0,1,3.981-3.981h10.617a3.986,3.986,0,0,1,3.981,3.981v43.353a3.986,3.986,0,0,1-3.981,3.981Z" transform="translate(-340.793 -243.16)" fill="#f2f2f2"/>
    <rect id="Rectangle_32-2" data-name="Rectangle 32" width="17.695" height="3.539" transform="translate(524.708 8.405)" fill="#ccc"/>
    <rect id="Rectangle_33-2" data-name="Rectangle 33" width="17.695" height="3.539" transform="translate(524.708 35.832)" fill="#ccc"/>
    <path id="Path_18-2" data-name="Path 18" d="M893.538,302.43H641.385a.885.885,0,1,1,0-1.77H893.538a.885.885,0,1,1,0,1.77Z" transform="translate(-314.912 -249.787)" fill="#ccc"/>
    <path id="Path_19-2" data-name="Path 19" d="M893.538,383.43H641.385a.885.885,0,1,1,0-1.77H893.538a.885.885,0,1,1,0,1.77Z" transform="translate(-314.912 -259.122)" fill="#ccc"/>
    <path id="Path_20-2" data-name="Path 20" d="M893.538,464.43H641.385a.885.885,0,1,1,0-1.77H893.538a.885.885,0,1,1,0,1.77Z" transform="translate(-314.912 -268.458)" fill="#ccc"/>
    <path id="Path_21-2" data-name="Path 21" d="M853.891,447.869a107.976,107.976,0,0,1,8.936-34.078q2.017-4.506,4.44-8.813a.658.658,0,0,0-1.136-.664,109.471,109.471,0,0,0-12.181,33.6q-.915,4.94-1.375,9.95c-.078.842,1.238.837,1.315,0Z" transform="translate(-339.354 -261.698)" fill="#e6e6e6"/>
    <circle id="Ellipse_8-2" data-name="Ellipse 8" cx="8.329" cy="8.329" r="8.329" transform="translate(522.77 128.731)" fill="#e6e6e6"/>
    <path id="Path_22-2" data-name="Path 22" d="M854.915,450.126a70.053,70.053,0,0,1,5.8-22.108q1.308-2.923,2.88-5.717a.427.427,0,0,0-.737-.431,71.017,71.017,0,0,0-7.9,21.8q-.593,3.2-.892,6.455C854.011,450.673,854.864,450.669,854.915,450.126Z" transform="translate(-339.525 -263.734)" fill="#e6e6e6"/>
    <circle id="Ellipse_9-2" data-name="Ellipse 9" cx="5.404" cy="5.404" r="5.404" transform="translate(520.73 149.128)" fill="#e6e6e6"/>
    <path id="Path_23-2" data-name="Path 23" d="M852.36,449.657a70.05,70.05,0,0,1-9.026-21q-.766-3.109-1.245-6.28a.427.427,0,0,0-.846.114,71.019,71.019,0,0,0,7.178,22.05q1.5,2.892,3.267,5.638C851.984,450.644,852.655,450.117,852.36,449.657Z" transform="translate(-338.048 -263.775)" fill="#e6e6e6"/>
    <circle id="Ellipse_10-2" data-name="Ellipse 10" cx="5.404" cy="5.404" r="5.404" transform="translate(497.784 148.749)" fill="#e6e6e6"/>
    <path id="Path_24-2" data-name="Path 24" d="M835.059,456.758V446.141a3.986,3.986,0,0,1,3.981-3.981h24.773a3.986,3.986,0,0,1,3.981,3.981v10.617a3.986,3.986,0,0,1-3.981,3.981H839.04A3.986,3.986,0,0,1,835.059,456.758Z" transform="translate(-337.335 -266.095)" fill="#f2f2f2"/>
    <path id="Path_25-2" data-name="Path 25" d="M610.474,606.429H273.385a.885.885,0,1,1,0-1.769H610.474a.885.885,0,1,1,0,1.769Z" transform="translate(-272.5 -284.823)" fill="#3f3d56"/>
    <circle id="Ellipse_11-2" data-name="Ellipse 11" cx="23.888" cy="23.888" r="23.888" transform="translate(152.229 157.928)" fill="#2f2e41"/>
    <path id="Path_28-2" data-name="Path 28" d="M188.255,375.253l-6.888,8.379-35.6-22.578,10.165-12.367Z" transform="translate(-16.8 -40.187)" fill="#ffb8b8"/>
    <path id="Path_29-2" data-name="Path 29" d="M13.171,0H34.09V13.171H0A13.171,13.171,0,0,1,13.171,0Z" transform="matrix(0.635, -0.773, 0.773, 0.635, 148.892, 357.636)" fill="#2f2e41"/>
    <path id="Path_30-2" data-name="Path 30" d="M443.264,577.465l-4.707,22.188a3.539,3.539,0,0,0,3.4,4.273l46.271.746a3.539,3.539,0,0,0,3.542-4.154l-4.047-22.935a3.539,3.539,0,0,0-3.485-2.924H446.726A3.539,3.539,0,0,0,443.264,577.465Z" transform="translate(-291.629 -281.366)" fill="#2f2e41"/>
    <path id="Path_31-2" data-name="Path 31" d="M445.206,584.358s-45.122-28.312-53.97-13.271c-4.424,7.52-2.212,14.82,1.106,20.239a30.639,30.639,0,0,0,12.743,11.405l36.582,17.9,13.271-14.156-8.847-7.963Z" transform="translate(-285.899 -280.446)" fill="#2f2e41"/>
    <path id="Path_32-2" data-name="Path 32" d="M476.945,581.083s58.393-16.81,46.892,15.041-54.854,19.464-54.854,19.464l-4.424-13.271L479.6,591.7Z" transform="translate(-294.635 -281.595)" fill="#2f2e41"/>
    <circle id="Ellipse_12-2" data-name="Ellipse 12" cx="21.73" cy="21.73" r="21.73" transform="translate(154.687 165.54)" fill="#ffb8b8"/>
    <path id="Path_33-2" data-name="Path 33" d="M468.02,574.244a116.778,116.778,0,0,1-26.77-3.527l-.259-.071-12.126-55.779a20.548,20.548,0,0,1,13.212-23.838,71.186,71.186,0,0,1,45.387-.906h0A20.765,20.765,0,0,1,501.3,514.688L487.754,570.6l-.191.091C481.934,573.357,474.9,574.244,468.02,574.244Z" transform="translate(-290.464 -271.245)" fill="#ccc"/>
    <path id="Path_34-2" data-name="Path 34" d="M454.7,587.214a8.9,8.9,0,0,1,12.807-4.7l23.876-20.725,2.16,16.287-23,17.184a8.945,8.945,0,0,1-15.839-8.046Z" transform="translate(-293.436 -279.883)" fill="#ffb8b8"/>
    <path id="Path_36-2" data-name="Path 36" d="M479.576,585.021a8.9,8.9,0,0,0-12.807-4.7L442.893,559.6l-2.16,16.287,23,17.184a8.945,8.945,0,0,0,15.839-8.046Z" transform="translate(-291.889 -279.63)" fill="#ffb8b8"/>
    <path id="Path_37-2" data-name="Path 37" d="M454.751,583.618a3.942,3.942,0,0,1-2.41-.827l-39.272-19.211a13.169,13.169,0,0,1-10.9-12.145c-.984-14.775,15.622-38.408,19.393-48.463,5.384-14.357,18.523-11.368,18.656-11.334l.326.079-15.478,58.978,35.185,17.761a3.957,3.957,0,0,1,1.152,4.337l-2.882,8.165a3.94,3.94,0,0,1-2.621,2.492A4.011,4.011,0,0,1,454.751,583.618Z" transform="translate(-287.439 -271.765)" fill="#ccc"/>
    <path id="Path_38" data-name="Path 38" d="M503.495,598.4H424.752a6.2,6.2,0,0,1-6.193-6.193V548.853a6.2,6.2,0,0,1,6.193-6.193h78.743a6.2,6.2,0,0,1,6.193,6.193v43.353A6.2,6.2,0,0,1,503.495,598.4Z" transform="translate(-289.333 -277.678)" fill="#6c63ff"/>
    <circle id="Ellipse_13-2" data-name="Ellipse 13" cx="5.308" cy="5.308" r="5.308" transform="translate(169.482 287.543)" fill="#fff"/>
    <path id="Path_39-2" data-name="Path 39" d="M447.041,450.71c-1.288-3.267.825-7.16,3.96-8.742s6.917-1.281,10.27-.239c2.818.876,5.459,2.235,8.208,3.308a18.369,18.369,0,0,0,8.629,1.537,8.691,8.691,0,0,0,7.051-4.671c1.244-2.795.4-6.2-1.517-8.59a16.633,16.633,0,0,0-7.619-4.9c-6.465-2.278-13.933-2.344-19.935.967s-10.081,10.361-8.841,17.1" transform="translate(-292.572 -264.324)" fill="#2f2e41"/>
    <path id="Path_40-2" data-name="Path 40" d="M304.99,589.265a107.978,107.978,0,0,1,8.937-34.079q2.017-4.505,4.44-8.813a.658.658,0,0,0-1.136-.664,109.469,109.469,0,0,0-12.181,33.6q-.915,4.94-1.375,9.95c-.078.842,1.238.837,1.315,0Z" transform="translate(-276.093 -277.994)" fill="#e6e6e6"/>
    <circle id="Ellipse_14-2" data-name="Ellipse 14" cx="8.329" cy="8.329" r="8.329" transform="translate(37.13 253.831)" fill="#6c63ff"/>
    <path id="Path_41-2" data-name="Path 41" d="M306.014,591.522a70.051,70.051,0,0,1,5.8-22.108q1.308-2.923,2.88-5.717a.427.427,0,0,0-.737-.431,71.016,71.016,0,0,0-7.9,21.8q-.593,3.2-.892,6.455C305.11,592.069,305.963,592.065,306.014,591.522Z" transform="translate(-276.264 -280.03)" fill="#e6e6e6"/>
    <circle id="Ellipse_15-2" data-name="Ellipse 15" cx="5.404" cy="5.404" r="5.404" transform="translate(35.091 274.228)" fill="#6c63ff"/>
    <path id="Path_42-2" data-name="Path 42" d="M303.46,591.052a70.05,70.05,0,0,1-9.027-21q-.766-3.109-1.245-6.279a.427.427,0,0,0-.846.114,71.017,71.017,0,0,0,7.178,22.05q1.5,2.892,3.267,5.638C303.083,592.039,303.754,591.512,303.46,591.052Z" transform="translate(-274.787 -280.07)" fill="#e6e6e6"/>
    <circle id="Ellipse_16-2" data-name="Ellipse 16" cx="5.404" cy="5.404" r="5.404" transform="translate(12.145 273.849)" fill="#6c63ff"/>
    <path id="Path_43-2" data-name="Path 43" d="M286.159,598.154V587.537a3.986,3.986,0,0,1,3.981-3.981h24.773a3.986,3.986,0,0,1,3.981,3.981v10.617a3.986,3.986,0,0,1-3.981,3.981H290.14a3.986,3.986,0,0,1-3.981-3.981Z" transform="translate(-274.074 -282.391)" fill="#f2f2f2"/>
    <path id="Path_44-2" data-name="Path 44" d="M584.164,612.611c0,5.819-4.717,8.464-10.536,8.464s-10.536-2.645-10.536-8.464,2.342-12.609,10.536-10.268C581.822,598.832,584.164,606.792,584.164,612.611Z" transform="translate(-305.991 -284.457)" fill="#ff6584"/>
    <path id="Path_45-2" data-name="Path 45" d="M573.789,603.665a1.684,1.684,0,0,1-1.673-1.468c-.349-2.9-2.272-8.589-3.082-10.9h0a1.506,1.506,0,0,1,.195-1.386,1.581,1.581,0,0,1,2.356-.17,1.508,1.508,0,0,1,.414,1.129c-.159,2.964,2,7.755,3.3,10.346a1.688,1.688,0,0,1-1.336,2.438,1.559,1.559,0,0,1-.179.01Z" transform="translate(-306.666 -283.052)" fill="#3f3d56"/>
    <path id="Path_46-2" data-name="Path 46" d="M582.1,597.092c3.657-2.993.788-9.12-3.79-7.944a3.7,3.7,0,0,0-1.649.88c-2.808,2.653-3.243,9.44-3.243,9.44A12.428,12.428,0,0,0,582.1,597.092Z" transform="translate(-307.181 -283.019)" fill="#3f3d56"/>
  </g>
</svg>
