<svg id="left" xmlns="http://www.w3.org/2000/svg" width="579.511" height="366" viewBox="0 0 579.511 366">
  <path id="Path_1" data-name="Path 1" d="M701.028,366.869a107.979,107.979,0,0,0-8.936-34.078q-2.017-4.506-4.44-8.813a.658.658,0,0,1,1.136-.664,109.467,109.467,0,0,1,12.181,33.6q.915,4.94,1.375,9.95C702.421,367.712,701.106,367.706,701.028,366.869Z" transform="translate(-490.071 -252.362)" fill="#e6e6e6"/>
  <circle id="Ellipse_5" data-name="Ellipse 5" cx="8.329" cy="8.329" r="8.329" transform="translate(186.066 57.067)" fill="#e6e6e6"/>
  <path id="Path_2" data-name="Path 2" d="M697.789,369.126a70.05,70.05,0,0,0-5.8-22.108q-1.308-2.923-2.88-5.717a.427.427,0,0,1,.737-.431,71.018,71.018,0,0,1,7.9,21.8q.593,3.2.892,6.455C698.692,369.673,697.839,369.669,697.789,369.126Z" transform="translate(-487.684 -254.398)" fill="#e6e6e6"/>
  <circle id="Ellipse_6" data-name="Ellipse 6" cx="5.404" cy="5.404" r="5.404" transform="translate(193.957 77.464)" fill="#e6e6e6"/>
  <path id="Path_3" data-name="Path 3" d="M676.314,368.657a70.049,70.049,0,0,0,9.027-21q.766-3.109,1.245-6.28a.427.427,0,0,1,.846.114,71.016,71.016,0,0,1-7.178,22.05q-1.5,2.892-3.267,5.638c-.3.462-.967-.066-.673-.525Z" transform="translate(-465.132 -254.439)" fill="#e6e6e6"/>
  <circle id="Ellipse_7" data-name="Ellipse 7" cx="5.404" cy="5.404" r="5.404" transform="translate(216.903 77.085)" fill="#e6e6e6"/>
  <path id="Path_4" data-name="Path 4" d="M702.795,375.758V365.141a3.986,3.986,0,0,0-3.981-3.981H674.041a3.986,3.986,0,0,0-3.981,3.981v10.617a3.986,3.986,0,0,0,3.981,3.981h24.773A3.986,3.986,0,0,0,702.795,375.758Z" transform="translate(-475.024 -256.76)" fill="#f2f2f2"/>
  <path id="Path_5" data-name="Path 5" d="M689.041,294.475h10.617a3.986,3.986,0,0,0,3.981-3.981V247.141a3.986,3.986,0,0,0-3.981-3.981H689.041a3.986,3.986,0,0,0-3.981,3.981v43.353a3.986,3.986,0,0,0,3.981,3.981Z" transform="translate(-489.139 -243.16)" fill="#f2f2f2"/>
  <rect id="Rectangle_8" data-name="Rectangle 8" width="17.695" height="3.539" transform="translate(196.362 8.405)" fill="#ccc"/>
  <rect id="Rectangle_9" data-name="Rectangle 9" width="17.695" height="3.539" transform="translate(196.362 35.833)" fill="#ccc"/>
  <path id="Path_6" data-name="Path 6" d="M719.04,294.475h10.617a3.986,3.986,0,0,0,3.981-3.981V247.141a3.986,3.986,0,0,0-3.981-3.981H719.04a3.986,3.986,0,0,0-3.981,3.981v43.353a3.986,3.986,0,0,0,3.981,3.981Z" transform="translate(-545.682 -243.16)" fill="#f2f2f2"/>
  <rect id="Rectangle_10" data-name="Rectangle 10" width="17.695" height="3.539" transform="translate(169.82 8.405)" fill="#ccc"/>
  <rect id="Rectangle_11" data-name="Rectangle 11" width="17.695" height="3.539" transform="translate(169.82 35.833)" fill="#ccc"/>
  <path id="Path_7" data-name="Path 7" d="M749.04,294.475h10.617a3.986,3.986,0,0,0,3.981-3.981V247.141a3.986,3.986,0,0,0-3.981-3.981H749.04a3.986,3.986,0,0,0-3.981,3.981v43.353a3.986,3.986,0,0,0,3.981,3.981Z" transform="translate(-602.224 -243.16)" fill="#f2f2f2"/>
  <rect id="Rectangle_12" data-name="Rectangle 12" width="17.695" height="3.539" transform="translate(143.277 8.405)" fill="#ccc"/>
  <rect id="Rectangle_13" data-name="Rectangle 13" width="17.695" height="3.539" transform="translate(143.277 35.833)" fill="#ccc"/>
  <path id="Path_8" data-name="Path 8" d="M765.04,375.475h10.617a3.986,3.986,0,0,0,3.981-3.981V328.141a3.986,3.986,0,0,0-3.981-3.981H765.04a3.986,3.986,0,0,0-3.981,3.981v43.353a3.986,3.986,0,0,0,3.981,3.981Z" transform="translate(-632.38 -252.495)" fill="#f2f2f2"/>
  <rect id="Rectangle_14" data-name="Rectangle 14" width="17.695" height="3.539" transform="translate(129.121 80.07)" fill="#ccc"/>
  <rect id="Rectangle_15" data-name="Rectangle 15" width="17.695" height="3.539" transform="translate(129.121 107.497)" fill="#ccc"/>
  <path id="Path_9" data-name="Path 9" d="M795.04,375.475h10.617a3.986,3.986,0,0,0,3.981-3.981V328.141a3.986,3.986,0,0,0-3.981-3.981H795.04a3.986,3.986,0,0,0-3.981,3.981v43.353a3.986,3.986,0,0,0,3.981,3.981Z" transform="translate(-688.923 -252.495)" fill="#f2f2f2"/>
  <rect id="Rectangle_16" data-name="Rectangle 16" width="17.695" height="3.539" transform="translate(102.579 80.07)" fill="#ccc"/>
  <rect id="Rectangle_17" data-name="Rectangle 17" width="17.695" height="3.539" transform="translate(102.579 107.497)" fill="#ccc"/>
  <path id="Path_10" data-name="Path 10" d="M825.04,375.475h10.617a3.986,3.986,0,0,0,3.981-3.981V328.141a3.986,3.986,0,0,0-3.981-3.981H825.04a3.986,3.986,0,0,0-3.981,3.981v43.353a3.986,3.986,0,0,0,3.981,3.981Z" transform="translate(-745.465 -252.495)" fill="#f2f2f2"/>
  <rect id="Rectangle_18" data-name="Rectangle 18" width="17.695" height="3.539" transform="translate(76.036 80.07)" fill="#ccc"/>
  <rect id="Rectangle_19" data-name="Rectangle 19" width="17.695" height="3.539" transform="translate(76.036 107.497)" fill="#ccc"/>
  <path id="Path_11" data-name="Path 11" d="M686.04,456.475h10.617a3.986,3.986,0,0,0,3.981-3.981V409.141a3.986,3.986,0,0,0-3.981-3.981H686.04a3.986,3.986,0,0,0-3.981,3.981v43.353a3.986,3.986,0,0,0,3.981,3.981Z" transform="translate(-483.485 -261.831)" fill="#f2f2f2"/>
  <rect id="Rectangle_20" data-name="Rectangle 20" width="17.695" height="3.539" transform="translate(199.016 151.735)" fill="#ccc"/>
  <rect id="Rectangle_21" data-name="Rectangle 21" width="17.695" height="3.539" transform="translate(199.016 179.162)" fill="#ccc"/>
  <path id="Path_12" data-name="Path 12" d="M716.04,456.475h10.617a3.986,3.986,0,0,0,3.981-3.981V409.141a3.986,3.986,0,0,0-3.981-3.981H716.04a3.986,3.986,0,0,0-3.981,3.981v43.353a3.986,3.986,0,0,0,3.981,3.981Z" transform="translate(-540.027 -261.831)" fill="#f2f2f2"/>
  <rect id="Rectangle_22" data-name="Rectangle 22" width="17.695" height="3.539" transform="translate(172.474 151.735)" fill="#ccc"/>
  <rect id="Rectangle_23" data-name="Rectangle 23" width="17.695" height="3.539" transform="translate(172.474 179.162)" fill="#ccc"/>
  <path id="Path_13" data-name="Path 13" d="M746.04,456.475h10.617a3.986,3.986,0,0,0,3.981-3.981V409.141a3.986,3.986,0,0,0-3.981-3.981H746.04a3.986,3.986,0,0,0-3.981,3.981v43.353a3.986,3.986,0,0,0,3.981,3.981Z" transform="translate(-596.57 -261.831)" fill="#f2f2f2"/>
  <rect id="Rectangle_24" data-name="Rectangle 24" width="17.695" height="3.539" transform="translate(145.931 151.735)" fill="#ccc"/>
  <rect id="Rectangle_25" data-name="Rectangle 25" width="17.695" height="3.539" transform="translate(145.931 179.162)" fill="#ccc"/>
  <path id="Path_14" data-name="Path 14" d="M779.04,294.475h10.617a3.986,3.986,0,0,0,3.981-3.981V247.141a3.986,3.986,0,0,0-3.981-3.981H779.04a3.986,3.986,0,0,0-3.981,3.981v43.353a3.986,3.986,0,0,0,3.981,3.981Z" transform="translate(-658.767 -243.16)" fill="#f2f2f2"/>
  <rect id="Rectangle_26" data-name="Rectangle 26" width="17.695" height="3.539" transform="translate(116.735 8.405)" fill="#ccc"/>
  <rect id="Rectangle_27" data-name="Rectangle 27" width="17.695" height="3.539" transform="translate(116.735 35.833)" fill="#ccc"/>
  <path id="Path_15" data-name="Path 15" d="M809.04,294.475h10.617a3.986,3.986,0,0,0,3.981-3.981V247.141a3.986,3.986,0,0,0-3.981-3.981H809.04a3.986,3.986,0,0,0-3.981,3.981v43.353a3.986,3.986,0,0,0,3.981,3.981Z" transform="translate(-715.309 -243.16)" fill="#f2f2f2"/>
  <rect id="Rectangle_28" data-name="Rectangle 28" width="17.695" height="3.539" transform="translate(90.192 8.405)" fill="#ccc"/>
  <rect id="Rectangle_29" data-name="Rectangle 29" width="17.695" height="3.539" transform="translate(90.192 35.833)" fill="#ccc"/>
  <path id="Path_16" data-name="Path 16" d="M839.04,294.475h10.617a3.986,3.986,0,0,0,3.981-3.981V247.141a3.986,3.986,0,0,0-3.981-3.981H839.04a3.986,3.986,0,0,0-3.981,3.981v43.353a3.986,3.986,0,0,0,3.981,3.981Z" transform="translate(-771.852 -243.16)" fill="#f2f2f2"/>
  <rect id="Rectangle_30" data-name="Rectangle 30" width="17.695" height="3.539" transform="translate(63.65 8.405)" fill="#ccc"/>
  <rect id="Rectangle_31" data-name="Rectangle 31" width="17.695" height="3.539" transform="translate(63.65 35.833)" fill="#ccc"/>
  <path id="Path_17" data-name="Path 17" d="M869.04,294.475h10.617a3.986,3.986,0,0,0,3.981-3.981V247.141a3.986,3.986,0,0,0-3.981-3.981H869.04a3.986,3.986,0,0,0-3.981,3.981v43.353a3.986,3.986,0,0,0,3.981,3.981Z" transform="translate(-828.394 -243.16)" fill="#f2f2f2"/>
  <rect id="Rectangle_32" data-name="Rectangle 32" width="17.695" height="3.539" transform="translate(37.107 8.405)" fill="#ccc"/>
  <rect id="Rectangle_33" data-name="Rectangle 33" width="17.695" height="3.539" transform="translate(37.107 35.833)" fill="#ccc"/>
  <path id="Path_18" data-name="Path 18" d="M641.385,302.43H893.538a.885.885,0,1,0,0-1.77H641.385a.885.885,0,1,0,0,1.77Z" transform="translate(-640.5 -249.787)" fill="#ccc"/>
  <path id="Path_19" data-name="Path 19" d="M641.385,383.43H893.538a.885.885,0,1,0,0-1.77H641.385a.885.885,0,1,0,0,1.77Z" transform="translate(-640.5 -259.122)" fill="#ccc"/>
  <path id="Path_20" data-name="Path 20" d="M641.385,464.43H893.538a.885.885,0,1,0,0-1.77H641.385a.885.885,0,1,0,0,1.77Z" transform="translate(-640.5 -268.458)" fill="#ccc"/>
  <path id="Path_21" data-name="Path 21" d="M866.028,447.869a107.976,107.976,0,0,0-8.936-34.078q-2.017-4.506-4.44-8.813a.658.658,0,0,1,1.136-.664,109.471,109.471,0,0,1,12.181,33.6q.915,4.94,1.375,9.95c.078.842-1.238.837-1.315,0Z" transform="translate(-801.055 -261.698)" fill="#e6e6e6"/>
  <circle id="Ellipse_8" data-name="Ellipse 8" cx="8.329" cy="8.329" r="8.329" transform="translate(40.082 128.731)" fill="#e6e6e6"/>
  <path id="Path_22" data-name="Path 22" d="M862.788,450.126a70.053,70.053,0,0,0-5.8-22.108q-1.308-2.923-2.88-5.717a.427.427,0,0,1,.737-.431,71.017,71.017,0,0,1,7.9,21.8q.593,3.2.892,6.455C863.692,450.673,862.839,450.669,862.788,450.126Z" transform="translate(-798.667 -263.734)" fill="#e6e6e6"/>
  <circle id="Ellipse_9" data-name="Ellipse 9" cx="5.404" cy="5.404" r="5.404" transform="translate(47.973 149.129)" fill="#e6e6e6"/>
  <path id="Path_23" data-name="Path 23" d="M841.314,449.657a70.05,70.05,0,0,0,9.026-21q.766-3.109,1.245-6.28a.427.427,0,0,1,.846.114,71.019,71.019,0,0,1-7.178,22.05q-1.5,2.892-3.267,5.638C841.69,450.644,841.019,450.117,841.314,449.657Z" transform="translate(-776.116 -263.774)" fill="#e6e6e6"/>
  <circle id="Ellipse_10" data-name="Ellipse 10" cx="5.404" cy="5.404" r="5.404" transform="translate(70.919 148.749)" fill="#e6e6e6"/>
  <path id="Path_24" data-name="Path 24" d="M867.795,456.758V446.141a3.986,3.986,0,0,0-3.981-3.981H839.04a3.986,3.986,0,0,0-3.981,3.981v10.617a3.986,3.986,0,0,0,3.981,3.981h24.773A3.986,3.986,0,0,0,867.795,456.758Z" transform="translate(-786.008 -266.095)" fill="#f2f2f2"/>
  <path id="Path_25" data-name="Path 25" d="M273.385,606.429H610.474a.885.885,0,1,0,0-1.769H273.385a.885.885,0,1,0,0,1.769Z" transform="translate(-31.848 -284.823)" fill="#3f3d56"/>
  <circle id="Ellipse_11" data-name="Ellipse 11" cx="23.888" cy="23.888" r="23.888" transform="translate(379.505 157.928)" fill="#2f2e41"/>
  <path id="Path_26" data-name="Path 26" d="M214.456,376.426l.633-10.828L173.624,358l-.934,15.982Z" transform="translate(211.634 -41.26)" fill="#ffb8b8"/>
  <path id="Path_27" data-name="Path 27" d="M13.171,13.171H34.09V0H0A13.171,13.171,0,0,0,13.171,13.171Z" transform="translate(438.003 304.042) rotate(93.345)" fill="#2f2e41"/>
  <path id="Path_28" data-name="Path 28" d="M145.768,375.253l6.888,8.379,35.6-22.578L178.09,348.688Z" transform="translate(262.288 -40.186)" fill="#ffb8b8"/>
  <path id="Path_29" data-name="Path 29" d="M13.171,13.171H34.09V0H0A13.171,13.171,0,0,0,13.171,13.171Z" transform="matrix(-0.635, -0.773, 0.773, -0.635, 420.443, 366)" fill="#2f2e41"/>
  <path id="Path_30" data-name="Path 30" d="M487.045,577.465l4.707,22.188a3.539,3.539,0,0,1-3.4,4.273l-46.271.746a3.539,3.539,0,0,1-3.542-4.154l4.047-22.935a3.539,3.539,0,0,1,3.485-2.924h37.516A3.539,3.539,0,0,1,487.045,577.465Z" transform="translate(-59.169 -281.366)" fill="#2f2e41"/>
  <path id="Path_31" data-name="Path 31" d="M398.491,584.358s45.122-28.312,53.97-13.271c4.424,7.52,2.212,14.82-1.106,20.239a30.639,30.639,0,0,1-12.743,11.405l-36.582,17.9-13.271-14.156,8.847-7.963Z" transform="translate(21.712 -280.446)" fill="#2f2e41"/>
  <path id="Path_32" data-name="Path 32" d="M512.951,581.083s-58.393-16.81-46.892,15.041,54.854,19.464,54.854,19.464l4.424-13.271L510.3,591.7Z" transform="translate(-115.751 -281.595)" fill="#2f2e41"/>
  <circle id="Ellipse_12" data-name="Ellipse 12" cx="21.73" cy="21.73" r="21.73" transform="translate(381.363 165.54)" fill="#ffb8b8"/>
  <path id="Path_33" data-name="Path 33" d="M462.216,574.244a116.778,116.778,0,0,0,26.77-3.527l.259-.071,12.126-55.779a20.548,20.548,0,0,0-13.212-23.838,71.186,71.186,0,0,0-45.387-.906h0a20.765,20.765,0,0,0-13.833,24.565L442.482,570.6l.191.091C448.3,573.357,455.34,574.244,462.216,574.244Z" transform="translate(-60.261 -271.245)" fill="#ccc"/>
  <path id="Path_34" data-name="Path 34" d="M493,587.214a8.9,8.9,0,0,0-12.807-4.7l-23.876-20.725-2.16,16.287,23,17.184A8.945,8.945,0,0,0,493,587.214Z" transform="translate(-74.753 -279.882)" fill="#ffb8b8"/>
  <path id="Path_35" data-name="Path 35" d="M522.714,583.618a4.009,4.009,0,0,0,1.147-.168,3.94,3.94,0,0,0,2.621-2.492l2.882-8.165a3.956,3.956,0,0,0-1.152-4.337l-32.531-19.53L508.5,491.716l-.326-.079c-.133-.033-13.271-3.023-18.656,11.334-3.77,10.055-17.723,31.919-16.738,46.694a13.169,13.169,0,0,0,10.9,12.145l36.618,20.98a3.942,3.942,0,0,0,2.41.827Z" transform="translate(-127.242 -271.765)" fill="#ccc"/>
  <path id="Path_36" data-name="Path 36" d="M441.282,585.021a8.9,8.9,0,0,1,12.807-4.7L477.965,559.6l2.16,16.287-23,17.184a8.945,8.945,0,0,1-15.839-8.046Z" transform="translate(-49.458 -279.63)" fill="#ffb8b8"/>
  <path id="Path_37" data-name="Path 37" d="M409.005,583.618a3.942,3.942,0,0,0,2.41-.827l39.272-19.211a13.169,13.169,0,0,0,10.9-12.145c.984-14.775-15.622-38.408-19.393-48.463-5.384-14.357-18.523-11.368-18.656-11.334l-.326.079,15.478,58.978-35.185,17.761a3.957,3.957,0,0,0-1.152,4.337l2.882,8.165a3.94,3.94,0,0,0,2.621,2.492A4.011,4.011,0,0,0,409.005,583.618Z" transform="translate(3.194 -271.765)" fill="#ccc"/>
  <path id="Path_38" data-name="Path 38" d="M424.752,598.4h78.743a6.2,6.2,0,0,0,6.193-6.193V548.853a6.2,6.2,0,0,0-6.193-6.193H424.752a6.2,6.2,0,0,0-6.193,6.193v43.353A6.2,6.2,0,0,0,424.752,598.4Z" transform="translate(-59.403 -277.678)" fill="#6c63ff"/>
  <circle id="Ellipse_13" data-name="Ellipse 13" cx="5.308" cy="5.308" r="5.308" transform="translate(399.412 287.544)" fill="#fff"/>
  <path id="Path_39" data-name="Path 39" d="M485.36,450.71c1.288-3.267-.825-7.16-3.96-8.742s-6.917-1.281-10.27-.239c-2.818.876-5.459,2.235-8.208,3.308a18.369,18.369,0,0,1-8.629,1.537,8.691,8.691,0,0,1-7.051-4.671c-1.244-2.795-.4-6.2,1.517-8.59a16.633,16.633,0,0,1,7.619-4.9c6.465-2.278,13.933-2.344,19.935.967s10.081,10.361,8.841,17.1" transform="translate(-60.319 -264.323)" fill="#2f2e41"/>
  <path id="Path_40" data-name="Path 40" d="M317.128,589.265a107.978,107.978,0,0,0-8.937-34.079q-2.017-4.505-4.44-8.813a.658.658,0,0,1,1.136-.664,109.469,109.469,0,0,1,12.181,33.6q.915,4.94,1.375,9.95c.078.842-1.238.837-1.315,0Z" transform="translate(233.485 -277.994)" fill="#e6e6e6"/>
  <circle id="Ellipse_14" data-name="Ellipse 14" cx="8.329" cy="8.329" r="8.329" transform="translate(525.722 253.831)" fill="#6c63ff"/>
  <path id="Path_41" data-name="Path 41" d="M313.887,591.522a70.051,70.051,0,0,0-5.8-22.108q-1.308-2.923-2.88-5.717a.427.427,0,0,1,.737-.431,71.016,71.016,0,0,1,7.9,21.8q.593,3.2.892,6.455C314.791,592.069,313.937,592.065,313.887,591.522Z" transform="translate(235.874 -280.03)" fill="#e6e6e6"/>
  <circle id="Ellipse_15" data-name="Ellipse 15" cx="5.404" cy="5.404" r="5.404" transform="translate(533.613 274.229)" fill="#6c63ff"/>
  <path id="Path_42" data-name="Path 42" d="M292.413,591.052a70.05,70.05,0,0,0,9.027-21q.766-3.109,1.245-6.279a.427.427,0,0,1,.846.114,71.017,71.017,0,0,1-7.178,22.05q-1.5,2.892-3.267,5.638C292.789,592.039,292.118,591.512,292.413,591.052Z" transform="translate(258.425 -280.07)" fill="#e6e6e6"/>
  <circle id="Ellipse_16" data-name="Ellipse 16" cx="5.404" cy="5.404" r="5.404" transform="translate(556.558 273.849)" fill="#6c63ff"/>
  <path id="Path_43" data-name="Path 43" d="M318.895,598.154V587.537a3.986,3.986,0,0,0-3.981-3.981H290.14a3.986,3.986,0,0,0-3.981,3.981v10.617a3.986,3.986,0,0,0,3.981,3.981h24.773a3.986,3.986,0,0,0,3.981-3.981Z" transform="translate(248.531 -282.391)" fill="#f2f2f2"/>
  <path id="Path_44" data-name="Path 44" d="M563.091,612.611c0,5.819,4.717,8.464,10.536,8.464s10.536-2.645,10.536-8.464S581.822,600,573.628,602.344C565.433,598.832,563.091,606.792,563.091,612.611Z" transform="translate(-261.754 -284.457)" fill="#ff6584"/>
  <path id="Path_45" data-name="Path 45" d="M570.64,603.665a1.684,1.684,0,0,0,1.673-1.468c.349-2.9,2.272-8.589,3.082-10.9h0a1.506,1.506,0,0,0-.195-1.386,1.581,1.581,0,0,0-2.356-.17,1.508,1.508,0,0,0-.414,1.129c.159,2.964-2,7.755-3.3,10.346a1.688,1.688,0,0,0,1.336,2.438,1.559,1.559,0,0,0,.179.01Z" transform="translate(-258.253 -283.052)" fill="#3f3d56"/>
  <path id="Path_46" data-name="Path 46" d="M575.083,597.092c-3.657-2.993-.788-9.12,3.79-7.944a3.7,3.7,0,0,1,1.649.88c2.808,2.653,3.243,9.44,3.243,9.44A12.428,12.428,0,0,1,575.083,597.092Z" transform="translate(-270.492 -283.018)" fill="#3f3d56"/>
</svg>
