<svg xmlns="http://www.w3.org/2000/svg" width="105.314" height="100" viewBox="0 0 105.314 100">
  <path id="git" d="M103.327,77.55,57.358,33.889a7.044,7.044,0,0,0-9.593,0l-9.558,9.069,12.111,11.5c6.361-2.04,12.384,3.743,10.2,9.75L72.191,75.293c8.047-2.634,14.382,6.92,8.338,12.654-6.227,5.913-16.5-.641-13.164-8.335L56.469,69.28v27.2c5.947,2.8,5.233,9.342,2.134,12.277a8.379,8.379,0,0,1-11.413,0,7.482,7.482,0,0,1,2.645-12.5V68.8a7.516,7.516,0,0,1-4.382-10.045L33.514,47.4,1.986,77.347a6.215,6.215,0,0,0,0,9.11l45.983,43.661a7.042,7.042,0,0,0,9.591,0L103.327,86.66a6.215,6.215,0,0,0,0-9.11Z" transform="translate(0.001 -32.003)" fill="#fff"/>
</svg>
