<svg xmlns="http://www.w3.org/2000/svg" width="105.314" height="100" viewBox="0 0 105.314 100">
  <path id="js" d="M0,32V132H105.314V32Zm57.311,77.991c0,9.732-6.018,14.174-14.786,14.174-7.922,0-12.506-3.884-14.857-8.594l8.063-4.621c1.552,2.612,2.962,4.821,6.371,4.821,3.244,0,5.313-1.205,5.313-5.915V77.915h9.9v32.076Zm23.414,14.174c-9.191,0-15.139-4.152-18.03-9.6l8.063-4.42c2.116,3.281,4.89,5.714,9.756,5.714,4.09,0,6.723-1.942,6.723-4.643,0-3.214-2.68-4.353-7.217-6.25l-2.468-1C70.405,101.085,65.68,97.446,65.68,89.79c0-7.054,5.665-12.411,14.481-12.411,6.3,0,10.813,2.076,14.058,7.522l-7.71,4.687c-1.693-2.879-3.526-4.018-6.371-4.018-2.891,0-4.725,1.741-4.725,4.018,0,2.813,1.834,3.951,6.088,5.714l2.468,1c8.416,3.415,13.141,6.92,13.141,14.777,0,8.438-7.005,13.08-16.385,13.08Z" transform="translate(0 -32)" fill="#fff"/>
</svg>
