<svg id="rwd" xmlns="http://www.w3.org/2000/svg" width="166.31" height="100" viewBox="0 0 166.31 100">
  <g id="Group_1" data-name="Group 1" transform="translate(0 0)">
    <path id="Path_51" data-name="Path 51" d="M216.656,351.708a6.236,6.236,0,0,1-2.448-4.07l-.829-5.3H186.935l-.832,5.3a6.227,6.227,0,0,1-2.444,4.07c-2.21,1.628-3.956,3.024-2.21,3.26,1.681.226,17.539.02,18.708,0,1.173.02,17.027.226,18.71,0C220.611,354.732,218.864,353.34,216.656,351.708Z" transform="translate(-128.763 -258.29)" fill="#fff"/>
    <path id="Path_52" data-name="Path 52" d="M79.987,253.686a4.444,4.444,0,0,0-4.443-4.443h-21.1A4.444,4.444,0,0,0,50,253.686v46.643a4.443,4.443,0,0,0,4.444,4.444h21.1a4.444,4.444,0,0,0,4.443-4.444V253.686Zm-17.2.556h4.443a.555.555,0,0,1,0,1.11H62.79a.555.555,0,1,1,0-1.11Zm2.036,47.9a2.222,2.222,0,1,1,2.221-2.222A2.222,2.222,0,0,1,64.826,302.145Zm12.385-6.256H52.776V258.682H77.212v37.207Z" transform="translate(-50 -204.772)" fill="#fff"/>
    <path id="Path_53" data-name="Path 53" d="M377.119,189.137h-45.7a6.23,6.23,0,0,0-6.231,6.23v65.406a6.233,6.233,0,0,0,6.231,6.233h45.7a6.231,6.231,0,0,0,6.231-6.233V195.366A6.229,6.229,0,0,0,377.119,189.137Zm-31.8,74.4a3.114,3.114,0,1,1,3.11-3.111A3.115,3.115,0,0,1,345.322,263.539Zm8.946,0a3.114,3.114,0,1,1,3.114-3.111A3.113,3.113,0,0,1,354.268,263.539Zm8.954,0a3.114,3.114,0,1,1,3.113-3.111A3.111,3.111,0,0,1,363.222,263.539Zm16.233-9H329.083V194.586h50.372v59.955Z" transform="translate(-217.039 -170.218)" fill="#fff"/>
    <path id="Path_54" data-name="Path 54" d="M196.272,151.113h7.659V137.242a5.106,5.106,0,0,0-5.107-5.107H81.38a5.107,5.107,0,0,0-5.107,5.107v39.425h7.661V139.794H196.272v11.319Z" transform="translate(-65.104 -132.135)" fill="#fff"/>
    <path id="Path_55" data-name="Path 55" d="M132.9,294.287v15.319h76.492V294.287Zm39.756,11.162a3.5,3.5,0,1,1,3.5-3.5A3.5,3.5,0,0,1,172.655,305.449Z" transform="translate(-100.814 -229.424)" fill="#fff"/>
  </g>
  <text id="Responsive_Web_Design" data-name="Responsive Web Design" transform="translate(35.767 15.659)" fill="#fff" font-size="12" font-family="OpenSans-Regular, Open Sans"><tspan x="0" y="13">Responsive </tspan><tspan x="0" y="30">Web Design</tspan></text>
</svg>
